# Blender v2.74 (sub 0) OBJ File: ''
# www.blender.org
v -1.136912 0.003611 -4.997082
v 0.063088 0.003611 -4.997082
v 0.063088 1.203611 -4.997082
v -1.136912 1.203611 -4.997082
v -0.536912 0.003611 -4.397082
v -0.536911 0.003611 -5.597082
v -0.536912 1.203611 -5.597083
v -0.536912 1.203611 -4.397082
v -6.627285 0.003610 -0.769423
v -5.427285 0.003610 -0.769423
v -5.427285 1.203610 -0.769424
v -6.627285 1.203610 -0.769424
v -6.027285 0.003610 -0.169423
v -6.027285 0.003610 -1.369424
v -6.027285 1.203610 -1.369424
v -6.027285 1.203610 -0.169424
v 0.120805 0.003610 0.066634
v 0.627331 0.003610 1.154491
v 0.627331 1.203610 1.154491
v 0.120805 1.203610 0.066634
v -0.169860 0.003611 0.863825
v 0.917996 0.003610 0.357300
v 0.917996 1.203610 0.357300
v -0.169860 1.203610 0.863825
v 1.939363 0.003611 -3.870557
v 2.736700 0.003610 -2.973755
v 2.736700 1.203610 -2.973755
v 1.939363 1.203611 -3.870557
v 1.889630 0.003610 -3.023487
v 2.786432 0.003611 -3.820825
v 2.786432 1.203611 -3.820825
v 1.889630 1.203610 -3.023487
v -3.247929 0.003610 -2.713487
v -2.374338 0.003610 -1.890785
v -2.374338 1.203610 -1.890785
v -3.247929 1.203610 -2.713487
v -3.222484 0.003611 -1.865341
v -2.399782 0.003610 -2.738931
v -2.399782 1.203610 -2.738931
v -3.222484 1.203610 -1.865341
v 7.206303 0.003610 1.656639
v 6.729870 0.003610 2.758007
v 6.729870 1.203609 2.758007
v 7.206303 1.203610 1.656640
v 6.417403 0.003611 1.969108
v 7.518770 0.003610 2.445540
v 7.518770 1.203610 2.445540
v 6.417403 1.203610 1.969108
v -2.019891 0.003610 5.511415
v -2.949056 0.003610 6.270791
v -2.949056 1.203609 6.270791
v -2.019891 1.203609 5.511416
v -2.864161 0.003610 5.426521
v -2.104786 0.003609 6.355686
v -2.104786 1.203609 6.355686
v -2.864161 1.203609 5.426521
v -12.123328 0.003610 0.181718
v -11.257655 0.003611 -0.649311
v -11.257655 1.203610 -0.649312
v -12.123328 1.203610 0.181718
v -11.274976 0.003610 0.199040
v -12.106008 0.003611 -0.666633
v -12.106008 1.203610 -0.666633
v -11.274976 1.203610 0.199040
v -5.981559 0.003610 7.548567
v -5.115887 0.003610 6.717537
v -5.115886 1.203609 6.717537
v -5.981559 1.203609 7.548567
v -5.133207 0.003610 7.565888
v -5.964238 0.003610 6.700215
v -5.964237 1.203609 6.700215
v -5.133207 1.203609 7.565887
v -5.163255 0.003610 3.917153
v -4.044483 0.003610 4.351145
v -4.044483 1.203609 4.351144
v -5.163255 1.203609 3.917153
v -4.820865 0.003610 4.693535
v -4.386873 0.003610 3.574763
v -4.386873 1.203609 3.574763
v -4.820865 1.203609 4.693534
v -6.925926 0.003612 -3.732436
v -5.924183 0.003611 -3.071747
v -5.924183 1.203610 -3.071747
v -6.925926 1.203611 -3.732436
v -6.755400 0.003611 -2.901220
v -6.094710 0.003612 -3.902963
v -6.094710 1.203611 -3.902963
v -6.755400 1.203610 -2.901221
v -8.950217 0.003611 1.153468
v -7.753965 0.003611 1.248239
v -7.753965 1.203610 1.248238
v -8.950217 1.203610 1.153467
v -8.399476 0.003611 1.798979
v -8.304706 0.003611 0.602727
v -8.304706 1.203610 0.602727
v -8.399476 1.203610 1.798979
v -2.331797 0.003611 -0.659996
v -1.912768 0.003610 0.464466
v -1.912768 1.203610 0.464466
v -2.331796 1.203610 -0.659996
v -2.684512 0.003611 0.111750
v -1.560051 0.003611 -0.307279
v -1.560051 1.203610 -0.307280
v -2.684513 1.203610 0.111750
v -5.161397 0.003611 0.531922
v -4.742368 0.003611 1.656384
v -4.742368 1.203610 1.656384
v -5.161397 1.203610 0.531922
v -5.514113 0.003611 1.303667
v -4.389652 0.003611 0.884638
v -4.389652 1.203610 0.884638
v -5.514114 1.203610 1.303667
v 4.391148 0.003611 0.926362
v 3.597642 0.003610 0.026169
v 3.597642 1.203610 0.026169
v 4.391148 1.203610 0.926363
v 3.544298 0.003610 0.873018
v 4.444492 0.003610 0.079513
v 4.444492 1.203610 0.079513
v 3.544298 1.203610 0.873019
v 4.806449 0.003610 3.812527
v 3.732761 0.003610 3.276624
v 3.732761 1.203609 3.276623
v 4.806449 1.203609 3.812527
v 4.001654 0.003610 4.081419
v 4.537557 0.003611 3.007731
v 4.537557 1.203609 3.007731
v 4.001654 1.203609 4.081419
v 6.609624 0.003612 -3.161592
v 7.186171 0.003611 -4.214014
v 7.186171 1.203611 -4.214014
v 6.609623 1.203610 -3.161592
v 6.371686 0.003612 -3.976076
v 7.424108 0.003611 -3.399530
v 7.424108 1.203611 -3.399530
v 6.371686 1.203611 -3.976077
v -0.487433 0.003611 1.980146
v -1.577091 0.003610 1.477509
v -1.577091 1.203610 1.477509
v -0.487433 1.203610 1.980146
v -1.283581 0.003610 2.273657
v -0.780943 0.003610 1.183998
v -0.780943 1.203610 1.183998
v -1.283581 1.203610 2.273656
v 10.179677 0.003611 0.517455
v 8.984852 0.003610 0.406136
v 8.984852 1.203610 0.406136
v 10.179677 1.203610 0.517455
v 9.526605 0.003610 1.059208
v 9.637924 0.003610 -0.135617
v 9.637924 1.203610 -0.135617
v 9.526605 1.203610 1.059208
v 5.869502 0.003610 5.422760
v 4.930470 0.003610 6.169903
v 4.930470 1.203609 6.169901
v 5.869500 1.203609 5.422760
v 5.773557 0.003610 6.265847
v 5.026415 0.003610 5.326817
v 5.026414 1.203609 5.326817
v 5.773557 1.203609 6.265846
v 0.637121 0.003611 -1.805795
v 1.213669 0.003611 -2.858217
v 1.213668 1.203610 -2.858217
v 0.637121 1.203610 -1.805795
v 0.399184 0.003611 -2.620279
v 1.451606 0.003611 -2.043732
v 1.451606 1.203610 -2.043732
v 0.399184 1.203610 -2.620279
v 1.740329 0.003611 -0.516482
v 1.336903 0.003610 -1.646635
v 1.336903 1.203610 -1.646635
v 1.740329 1.203610 -0.516481
v 0.973540 0.003611 -0.879845
v 2.103693 0.003611 -1.283271
v 2.103693 1.203610 -1.283271
v 0.973539 1.203610 -0.879845
v 3.117721 0.003611 2.883693
v 2.804810 0.003611 1.725209
v 2.804810 1.203610 1.725209
v 3.117721 1.203609 2.883694
v 2.382023 0.003611 2.460907
v 3.540508 0.003611 2.147995
v 3.540508 1.203610 2.147995
v 2.382023 1.203610 2.460907
v 1.243791 0.003610 8.964540
v 0.077800 0.003609 9.248203
v 0.077800 1.203608 9.248203
v 1.243791 1.203609 8.964542
v 0.802626 0.003609 9.689367
v 0.518964 0.003610 8.523376
v 0.518964 1.203609 8.523376
v 0.802626 1.203608 9.689367
v 4.819168 0.003611 -1.187724
v 4.506257 0.003611 -2.346208
v 4.506256 1.203610 -2.346208
v 4.819168 1.203610 -1.187724
v 4.083470 0.003611 -1.610510
v 5.241954 0.003611 -1.923421
v 5.241954 1.203610 -1.923421
v 4.083470 1.203610 -1.610511
v 0.499905 0.003611 -8.019167
v -0.210803 0.003611 -8.986066
v -0.210803 1.203611 -8.986067
v 0.499905 1.203611 -8.019167
v -0.338898 0.003611 -8.147264
v 0.628001 0.003611 -8.857970
v 0.628001 1.203611 -8.857970
v -0.338899 1.203611 -8.147264
v -2.017782 0.003610 3.719780
v -2.953915 0.003611 2.969012
v -2.953916 1.203609 2.969012
v -2.017782 1.203609 3.719780
v -2.861232 0.003610 3.812463
v -2.110465 0.003611 2.876329
v -2.110465 1.203609 2.876329
v -2.861232 1.203609 3.812463
v 1.450961 0.003610 5.045464
v 0.268660 0.003610 4.840132
v 0.268659 1.203609 4.840132
v 1.450961 1.203609 5.045464
v 0.757144 0.003610 5.533949
v 0.962477 0.003610 4.351646
v 0.962477 1.203609 4.351647
v 0.757144 1.203609 5.533949
vt 0.999900 0.000100
vt 0.999900 0.999900
vt 0.000100 0.999900
vt 0.000100 0.000100
vn 0.000000 0.000000 1.000000
vn 1.000000 0.000000 0.000000
vn -0.906500 -0.000000 0.422100
vn 0.422100 -0.000000 0.906500
vn -0.747300 -0.000000 0.664400
vn 0.664400 -0.000000 0.747300
vn -0.685600 -0.000000 0.728000
vn 0.728000 -0.000000 0.685600
vn -0.917800 0.000000 -0.397000
vn -0.397000 -0.000000 0.917800
vn -0.632800 0.000000 -0.774300
vn -0.774300 0.000000 0.632800
vn 0.692500 0.000000 0.721400
vn 0.721400 0.000000 -0.692500
vn -0.361700 0.000000 0.932300
vn 0.932300 0.000000 0.361700
vn -0.550600 -0.000000 0.834800
vn 0.834800 0.000000 0.550600
vn -0.079000 0.000000 0.996900
vn 0.996900 0.000000 0.079000
vn -0.937100 0.000000 0.349200
vn 0.349200 0.000000 0.937100
vn 0.750200 0.000000 -0.661300
vn 0.661300 -0.000000 0.750200
vn 0.446600 -0.000000 -0.894700
vn 0.894700 0.000000 0.446600
vn 0.877000 0.000000 0.480500
vn -0.480500 -0.000000 0.877000
vn 0.418900 0.000000 -0.908000
vn 0.908000 0.000000 0.418900
vn 0.092800 0.000000 -0.995700
vn 0.995700 0.000000 0.092800
vn -0.622600 -0.000000 -0.782500
vn 0.782500 0.000000 -0.622600
vn 0.941800 0.000000 -0.336200
vn 0.336200 -0.000000 0.941800
vn 0.965400 0.000000 -0.260800
vn 0.260800 -0.000000 0.965400
vn -0.236400 0.000000 -0.971700
vn 0.971700 0.000000 -0.236400
vn 0.805700 -0.000000 -0.592300
vn 0.592300 0.000000 0.805700
vn 0.625600 0.000000 -0.780100
vn 0.780100 0.000000 0.625600
vn 0.171100 0.000000 -0.985300
vn 0.985300 -0.000000 0.171100
vn 0.592300 0.000000 0.805800
s off
f 2/1/1 3/2/1 4/3/1
f 6/1/2 7/2/2 8/3/2
f 10/1/1 11/2/1 12/3/1
f 14/1/2 15/2/2 16/3/2
f 18/1/3 19/2/3 20/3/3
f 21/4/4 22/1/4 23/2/4
f 26/1/5 27/2/5 28/3/5
f 30/1/6 31/2/6 32/3/6
f 34/1/7 35/2/7 36/3/7
f 37/4/8 38/1/8 39/2/8
f 42/1/9 43/2/9 44/3/9
f 45/4/10 46/1/10 47/2/10
f 49/4/11 50/1/11 51/2/11
f 53/4/12 54/1/12 55/2/12
f 58/1/13 59/2/13 60/3/13
f 62/1/14 63/2/14 64/3/14
f 66/1/13 67/2/13 68/3/13
f 70/1/14 71/2/14 72/3/14
f 74/1/15 75/2/15 76/3/15
f 78/1/16 79/2/16 80/3/16
f 81/4/17 82/1/17 83/2/17
f 86/1/18 87/2/18 88/3/18
f 90/1/19 91/2/19 92/3/19
f 94/1/20 95/2/20 96/3/20
f 97/4/21 98/1/21 99/2/21
f 101/4/22 102/1/22 103/2/22
f 105/4/21 106/1/21 107/2/21
f 110/1/22 111/2/22 112/3/22
f 113/4/23 114/1/23 115/2/23
f 117/4/24 118/1/24 119/2/24
f 122/1/25 123/2/25 124/3/25
f 126/1/26 127/2/26 128/3/26
f 129/4/27 130/1/27 131/2/27
f 133/4/28 134/1/28 135/2/28
f 137/4/29 138/1/29 139/2/29
f 142/1/30 143/2/30 144/3/30
f 145/4/31 146/1/31 147/2/31
f 149/4/32 150/1/32 151/2/32
f 154/1/33 155/2/33 156/3/33
f 158/1/34 159/2/34 160/3/34
f 161/4/27 162/1/27 163/2/27
f 166/1/28 167/2/28 168/3/28
f 169/4/35 170/1/35 171/2/35
f 173/4/36 174/1/36 175/2/36
f 177/4/37 178/1/37 179/2/37
f 181/4/38 182/1/38 183/2/38
f 186/1/39 187/2/39 188/3/39
f 190/1/40 191/2/40 192/3/40
f 193/4/37 194/1/37 195/2/37
f 198/1/38 199/2/38 200/3/38
f 202/1/41 203/2/41 204/3/41
f 205/4/42 206/1/42 207/2/42
f 210/1/43 211/2/43 212/3/43
f 213/4/44 214/1/44 215/2/44
f 218/1/45 219/2/45 220/3/45
f 222/1/46 223/2/46 224/3/46
f 1/4/1 2/1/1 4/3/1
f 5/4/2 6/1/2 8/3/2
f 9/4/1 10/1/1 12/3/1
f 13/4/2 14/1/2 16/3/2
f 17/4/3 18/1/3 20/3/3
f 24/3/4 21/4/4 23/2/4
f 25/4/5 26/1/5 28/3/5
f 29/4/6 30/1/6 32/3/6
f 33/4/7 34/1/7 36/3/7
f 40/3/8 37/4/8 39/2/8
f 41/4/9 42/1/9 44/3/9
f 48/3/10 45/4/10 47/2/10
f 52/3/11 49/4/11 51/2/11
f 56/3/12 53/4/12 55/2/12
f 57/4/13 58/1/13 60/3/13
f 61/4/14 62/1/14 64/3/14
f 65/4/13 66/1/13 68/3/13
f 69/4/14 70/1/14 72/3/14
f 73/4/15 74/1/15 76/3/15
f 77/4/16 78/1/16 80/3/16
f 84/3/17 81/4/17 83/2/17
f 85/4/18 86/1/18 88/3/18
f 89/4/19 90/1/19 92/3/19
f 93/4/20 94/1/20 96/3/20
f 100/3/21 97/4/21 99/2/21
f 104/3/22 101/4/22 103/2/22
f 108/3/21 105/4/21 107/2/21
f 109/4/22 110/1/22 112/3/22
f 116/3/23 113/4/23 115/2/23
f 120/3/24 117/4/24 119/2/24
f 121/4/25 122/1/25 124/3/25
f 125/4/26 126/1/26 128/3/26
f 132/3/27 129/4/27 131/2/27
f 136/3/28 133/4/28 135/2/28
f 140/3/29 137/4/29 139/2/29
f 141/4/30 142/1/30 144/3/30
f 148/3/31 145/4/31 147/2/31
f 152/3/32 149/4/32 151/2/32
f 153/4/33 154/1/33 156/3/33
f 157/4/34 158/1/34 160/3/34
f 164/3/27 161/4/27 163/2/27
f 165/4/28 166/1/28 168/3/28
f 172/3/35 169/4/35 171/2/35
f 176/3/36 173/4/36 175/2/36
f 180/3/37 177/4/37 179/2/37
f 184/3/38 181/4/38 183/2/38
f 185/4/39 186/1/39 188/3/39
f 189/4/40 190/1/40 192/3/40
f 196/3/37 193/4/37 195/2/37
f 197/4/38 198/1/38 200/3/38
f 201/4/41 202/1/41 204/3/41
f 208/3/47 205/4/47 207/2/47
f 209/4/43 210/1/43 212/3/43
f 216/3/44 213/4/44 215/2/44
f 217/4/45 218/1/45 220/3/45
f 221/4/46 222/1/46 224/3/46
